<?xml version="1.0" encoding="utf-8"?>
<!-- Generator: Adobe Illustrator 26.5.0, SVG Export Plug-In . SVG Version: 6.00 Build 0)  -->
<svg version="1.1" id="Layer_1" xmlns="http://www.w3.org/2000/svg" xmlns:xlink="http://www.w3.org/1999/xlink" x="0px" y="0px"
	 viewBox="0 0 364.1 71.4" style="enable-background:new 0 0 364.1 71.4;" xml:space="preserve">
<style type="text/css">
	.st0{fill:#CDFF00;}
	.st1{fill:#FFFFFF;}
	.st2{fill:#ABDDFF;}
	.st3{fill:#005655;}
	.st4{fill:#FFEFD7;}
	.st5{fill:#7D49F3;}
</style>
<g>
	<path class="st3" d="M213,17.2c-10.1,0-18.7,8.4-18.7,19c0,10.5,7.8,18.4,18.2,18.4c9.4,0,15.9-5.5,17.5-12.4h-10
		c-0.7,2.2-3.5,4-6.8,4c-4.4,0-8.1-2.8-9-7.6h26c0.2-1.5,0.3-3,0.3-4C230.5,24.9,223,17.2,213,17.2z M205,31.4
		c1.4-3.7,4.5-5.9,8.2-5.9c4,0,6.9,2.7,7.2,5.9H205z"/>
	<path class="st3" d="M360.4,34.5c0-9.7-7.5-17.3-17.5-17.3c-10.1,0-18.7,8.4-18.7,19c0,10.5,7.8,18.4,18.2,18.4
		c9.4,0,15.9-5.5,17.5-12.4h-10c-0.7,2.2-3.5,4-6.8,4c-4.4,0-8.1-2.8-9-7.6h26C360.3,37.1,360.4,35.6,360.4,34.5z M334.6,31.4
		c1.4-3.7,4.5-5.9,8.2-5.9c4,0,6.9,2.7,7.2,5.9H334.6z"/>
	<polygon class="st3" points="43.8,3.2 29.1,40.7 14.4,3.2 13.6,3.2 3.7,3.2 3.7,4.1 3.7,53.6 13.6,53.6 13.6,27.9 24.2,53.4 
		34.1,53.4 44.7,27.6 44.7,53.6 54.5,53.6 54.5,3.8 54.5,3.2 44.7,3.2 	"/>
	<path class="st3" d="M83.3,18.7c-2.4-1.3-5.4-1.9-9-1.9c-3,0-5.5,0.5-7.6,1.4c-2.1,1-3.9,2.3-5.1,3.7c-1.3,1.5-3.2,4.7-3.2,7.3H69
		c0-0.8,0.7-2.1,1.8-2.8c1.2-0.8,2.1-1.1,3.6-1.1c1.6,0,2.7,0.4,3.7,1.2c0,0,0,0,0.1,0.1c1.6,1.3,2.6,3.3,2.7,5.4h-8.4
		c-4.7,0-8.3,1-10.8,2.9c-2.6,1.9-3.9,4.8-3.9,8.7c0,3.5,1.2,6.2,3.6,8.1s5.7,2.9,10,2.9c4.3,0,7.4-1.4,9.3-4.1
		c0.1-0.2,0.3-0.5,0.4-0.7l0,3.9h9.4V33.7c0-3.6-0.6-6.7-1.8-9.3C87.5,21.9,85.7,20,83.3,18.7z M79.8,42.6c-0.7,1.2-1.6,2.1-2.8,2.9
		c-1.2,0.7-2.5,1.1-4.1,1.1c-1.7,0-3.1-0.3-4-0.9c-1-0.6-1.4-1.4-1.4-2.5c0-1.3,0.6-2.4,1.8-3.1c1.2-0.7,3.4-1.1,6.5-1.1h5
		C80.8,40.2,80.5,41.4,79.8,42.6z"/>
	<path class="st3" d="M122.5,20.6c-2.6-1.4-5.6-2.1-9.2-2.1c-3.2,0-5.9,0.7-8.2,2.1c-0.8,0.5-1.5,1.2-2.2,1.8l-0.4-4.8h-8.9V68h9.5
		V49.6c0.6,0.6,1.3,1.2,2.1,1.7c2.2,1.4,4.9,2.1,8.2,2.1c3.5,0,6.6-0.7,9.2-2.1c2.6-1.4,4.6-3.4,6-6.1c1.4-2.6,2.1-5.7,2.1-9.3
		c0-3.6-0.7-6.7-2.1-9.3C127.1,24,125.1,22,122.5,20.6z M120,40.6c-0.8,1.3-1.9,2.4-3.3,3.1c-1.4,0.8-3,1.1-4.8,1.1
		c-1.7,0-3.2-0.4-4.5-1.1c-1.3-0.8-2.4-1.8-3.1-3.1c-0.8-1.3-1.1-2.9-1.1-4.6c0-1.7,0.4-3.2,1.1-4.6c0.8-1.3,1.8-2.4,3.2-3.1
		c1.4-0.8,2.9-1.1,4.6-1.1c1.8,0,3.4,0.4,4.8,1.1c1.4,0.7,2.5,1.8,3.2,3.1c0.8,1.3,1.2,2.9,1.2,4.6C121.2,37.7,120.8,39.3,120,40.6z
		"/>
	<path class="st3" d="M158.1,34.7c-1.4-1.3-3.6-2.2-6-2.8l-5.7-1.2c-1.2-0.3-2.1-0.6-2.8-1c-0.7-0.4-1-0.9-1-1.5
		c0-0.9,0.3-1.6,1-2.2c0.7-0.5,1.7-0.8,2.9-0.8c1.3,0,2.7,0,3.9,0.8c1.5,1.1,1.3,2,1.6,3.1h9.6c0-4.2-2.4-7.4-3.7-8.6
		c-1.4-1.2-3.1-2.1-5-2.8c-1.9-0.7-4-1-6.3-1c-4.4,0-7.8,1-10.2,3c-2.4,2-4,4.9-4,8.6c0,2.6,1,4.9,3,6.9c2,2,6.1,3.4,9.6,4.4
		l3.3,0.9c1.2,0.3,2.1,0.6,2.8,1c0.7,0.4,1,1,1,1.9c0,0.8-0.4,1.4-1.3,1.9c-0.9,0.4-2.1,0.6-3.6,0.6c-1.6,0-5.6-0.3-5.6-3.3h-9.6
		c0,3.6,1.9,6.5,3.4,7.8c1.5,1.3,3.3,2.3,5.3,3s4.2,1.1,6.5,1.1c2.8,0,5.3-0.6,7.5-1.5c2.2-0.9,3.9-2.2,5.2-3.9
		c1.3-1.7,1.9-3.6,1.9-5.7c0-1.5,0-3-0.7-4.6C160.6,37.4,159.6,36,158.1,34.7z"/>
	<path class="st3" d="M194.1,10.8c-1.5-2.4-3.5-4.3-6.1-5.7c-2.6-1.4-5.6-2.1-9-2l-9.5,0.1v0.1h-4.9v50.4h9.9V35.2h5.3
		c3.2,0,6.1-0.7,8.5-2.1c2.5-1.4,4.4-3.3,5.8-5.7c1.4-2.4,2.1-5.2,2.1-8.3C196.3,16,195.5,13.2,194.1,10.8z M184.7,24.5
		c-1.3,1.4-3.1,2-5.2,2h-5.1V11.7h4.3c1.5,0,2.9,0.3,4.1,0.9c1.2,0.6,2.1,1.5,2.8,2.6c0.7,1.1,1,2.4,1,3.9
		C186.8,21.3,186.1,23.1,184.7,24.5z"/>
	<path class="st3" d="M261.7,19.2c-2.8-1.6-6.1-2.4-9.9-2.4c-3.6,0-6.9,0.8-9.8,2.4c-2.9,1.6-5.1,3.8-6.7,6.7
		c-1.6,2.8-2.4,6.1-2.4,9.8s0.8,7,2.4,9.8c1.6,2.8,3.9,5.1,6.7,6.7c2.9,1.6,6.1,2.4,9.8,2.4c3.7,0,6.9-0.8,9.8-2.4
		c2.8-1.6,5-3.8,6.6-6.7c1.6-2.8,2.4-6.1,2.4-9.8s-0.8-7-2.4-9.8C266.7,23,264.5,20.8,261.7,19.2z M259.9,40.4
		c-0.8,1.4-1.8,2.5-3.2,3.3c-1.4,0.8-3,1.2-4.8,1.2c-1.8,0-3.4-0.4-4.8-1.2c-1.4-0.8-2.5-1.9-3.3-3.3c-0.8-1.4-1.2-3-1.2-4.8
		c0-1.8,0.4-3.4,1.2-4.8c0.8-1.4,1.9-2.5,3.3-3.3c1.4-0.8,3-1.2,4.7-1.2c1.8,0,3.4,0.4,4.8,1.2c1.4,0.8,2.5,1.9,3.3,3.3
		c0.8,1.4,1.2,3,1.2,4.8C261.1,37.4,260.7,39,259.9,40.4z"/>
	<polygon class="st3" points="312.4,53.6 321.9,53.6 321.9,3.2 312.4,3.2 	"/>
	<path class="st3" d="M302.3,20.6c-2.6-1.4-5.6-2.1-9.2-2.1c-3.2,0-5.9,0.7-8.2,2.1c-0.8,0.5-1.5,1.2-2.2,1.8l-0.4-4.8h-8.9V68h9.5
		V49.6c0.6,0.6,1.3,1.2,2.1,1.7c2.2,1.4,4.9,2.1,8.2,2.1c3.5,0,6.6-0.7,9.2-2.1c2.6-1.4,4.6-3.4,6-6.1c1.4-2.6,2.1-5.7,2.1-9.3
		c0-3.6-0.7-6.7-2.1-9.3C306.9,24,304.9,22,302.3,20.6z M299.8,40.6c-0.8,1.3-1.9,2.4-3.3,3.1c-1.4,0.8-3,1.1-4.8,1.1
		c-1.7,0-3.2-0.4-4.5-1.1c-1.3-0.8-2.4-1.8-3.1-3.1c-0.8-1.3-1.1-2.9-1.1-4.6c0-1.7,0.4-3.2,1.1-4.6c0.8-1.3,1.8-2.4,3.2-3.1
		c1.4-0.8,2.9-1.1,4.6-1.1c1.8,0,3.4,0.4,4.8,1.1c1.4,0.7,2.5,1.8,3.2,3.1c0.8,1.3,1.2,2.9,1.2,4.6C301,37.7,300.6,39.3,299.8,40.6z
		"/>
</g>
</svg>
